<svg xmlns="http://www.w3.org/2000/svg" fill='white' stroke-width="5" xmlns:xlink="http://www.w3.org/1999/xlink" viewBox="0 0 1280 800">
  <defs>
    <path id="a" d="M318.3 104.3h639.5v639.5H318.3z"/>
  </defs>
  <clipPath id="b">
    <use xlink:href="#a" overflow="visible"/>
  </clipPath>
  <path clip-path="url(#b)"
        d="M638 104.3c-176.6 0-319.7 143.1-319.7 319.7 0 75 25.9 143.9 69.1 198.4 0 0 13.7 6.7 25.8-5.6 12.1-12.3 6.3-27.5 6.4-27.4C384.7 543.5 364 486.2 364 424c0-151.4 122.7-274 274-274s274 122.7 274 274-122.6 274-274 274c-62.7 0-120.4-21.1-166.6-56.5.1 0-15-5-26.4 7.7-11.4 12.6-5.1 25.9-4.9 25.8 54.4 43 123.1 68.7 197.9 68.7 176.6 0 319.7-143.1 319.7-319.7S814.6 104.3 638 104.3"/>
  <path clip-path="url(#b)"
        d="M805.4 379.4H682.7V256.6s-11.2-22.3-44.6-22.3c-33.5 0-44.7 22.3-44.7 22.3v122.8H470.6s-22.3 11.2-22.3 44.6c0 33.5 22.3 44.7 22.3 44.7h122.8v122.8s11.2 22.3 44.7 22.3 44.6-22.3 44.6-22.3V468.7h122.8s22.3-11.2 22.3-44.7c-.1-33.5-22.4-44.6-22.4-44.6"/>
</svg>
