<svg xmlns="http://www.w3.org/2000/svg" fill='white' stroke-width="5" viewBox="0 0 1280 800">
  <path
    d="M953.7 224.4c-7.1-5.1-16.2-6.5-24.5-3.7l-290.1 97.2-290.2-99.1c-8.3-2.8-17.4-1.5-24.6 3.6-7.1 5.1-11.4 13.4-11.4 22.1v381.1c0 11.7 7.4 22 18.4 25.8l298.8 102.1c.1 0 .2 0 .3.1.9.3 1.9.5 2.8.7.5.1.9.3 1.4.3 1.4.2 2.9.3 4.3.3s2.9-.1 4.3-.3c.4-.1.9-.2 1.3-.3 1-.2 1.9-.4 2.9-.7.1 0 .2 0 .3-.1l298.8-101.7c11-3.7 18.4-14.1 18.4-25.8V246.5c.1-8.7-4.1-16.9-11.2-22.1zM611.8 689.7l-244.5-83.5V282.6l244.5 83.5v323.6zm298.9-83.2l-244.5 83.2V366.2l244.5-81.9v322.2z"/>
  <path
    d="M330.9 175.1L632 270.7c2.2.7 4.6 1.1 7 1.1 2.4 0 4.7-.4 7-1.1l301.1-95.6c18.5-5.9 18.5-29.3 0-35.2L646 44.3c-2.3-.7-4.6-1.1-7-1.1-2.4 0-4.7.4-7 1.1l-301.1 95.6c-18.5 5.8-18.5 29.3 0 35.2zM639 99.2l183.6 58.3L639 215.8l-183.6-58.3L639 99.2z"/>
</svg>
