<svg xmlns="http://www.w3.org/2000/svg" fill='white' stroke-width="5" xmlns:xlink="http://www.w3.org/1999/xlink" viewBox="0 0 1280 800">
  <defs>
    <path id="a" d="M318.3 104.3h639.5v639.5H318.3z"/>
  </defs>
  <clipPath id="b">
    <use xlink:href="#a" overflow="visible"/>
  </clipPath>
  <path clip-path="url(#b)"
        d="M638 104.3c-176.6 0-319.7 143.1-319.7 319.7 0 75 25.9 143.9 69.1 198.4 0 0 13.7 6.8 25.8-5.5 12.1-12.3 6.3-27.5 6.4-27.4-34.9-46-55.7-103.3-55.7-165.5 0-151.4 122.7-274 274.1-274s274 122.6 274 274-122.6 274.1-274 274.1c-62.7 0-120.4-21.1-166.6-56.5.1 0-15-4.9-26.4 7.7-11.4 12.6-5.1 25.9-4.9 25.8 54.5 43 123.1 68.7 197.9 68.7 176.6 0 319.7-143.1 319.7-319.7S814.6 104.3 638 104.3"/>
  <path clip-path="url(#b)"
        d="M479.4 492.5C507 564.8 577.1 616.3 659 616.3c52.5 0 101.6-20.8 138.1-58.4 8.8-9.1 8.6-23.5-.5-32.3s-23.5-8.6-32.3.5c-27.9 28.7-65.3 44.6-105.3 44.6-56.1 0-104.9-31.7-129.6-78.1h85.7c12.6 0 22.8-10.2 22.8-22.8S627.7 447 615.1 447h-101c-1.2-7.5-1.8-15.1-1.8-22.8 0-7.8.6-15.4 1.8-22.8h101c12.6 0 22.8-10.2 22.8-22.8 0-12.6-10.2-22.8-22.8-22.8h-85.7c24.7-46.4 73.5-78.1 129.6-78.1 38.4 0 74.6 14.7 102.1 41.4 9.1 8.8 23.5 8.6 32.3-.5 8.8-9.1 8.6-23.5-.5-32.3-36.1-35-83.6-54.2-133.9-54.2-81.9 0-152 51.5-179.7 123.8h-35.5c-12.6 0-22.8 10.2-22.8 22.8 0 12.6 10.2 22.8 22.8 22.8H468c-.9 7.5-1.4 15.1-1.4 22.8 0 7.7.5 15.4 1.4 22.8h-24.2c-12.6 0-22.8 10.2-22.8 22.8s10.2 22.8 22.8 22.8h35.6z"/>
</svg>
