<svg xmlns="http://www.w3.org/2000/svg" xmlns:xlink="http://www.w3.org/1999/xlink" fill='white' stroke-width="5" viewBox="0 0 1280 800">
  <defs>
    <path id="a" d="M360.7 128.1h549.1v603.3H360.7z"/>
  </defs>
  <clipPath id="b">
    <use xlink:href="#a" overflow="visible"/>
  </clipPath>
  <path clip-path="url(#b)"
        d="M852 731.4H418.5c-31.9 0-57.8-23.2-57.8-51.7V179.8c0-28.5 25.9-51.7 57.8-51.7h292.1c11.9 0 21.5 9.6 21.5 21.5s-9.6 21.5-21.5 21.5H418.5c-9 0-14.7 5.1-14.7 8.7v499.9c0 3.5 5.7 8.6 14.7 8.6H852c9 0 14.7-5.1 14.7-8.6V179.8c0-3.5-5.7-8.7-14.7-8.7h-44.5c-11.9 0-21.5-9.6-21.5-21.5s9.6-21.5 21.5-21.5H852c31.9 0 57.8 23.2 57.8 51.7v499.9c0 28.5-25.9 51.7-57.8 51.7"/>
  <path clip-path="url(#b)"
        d="M779.6 316.5H513.2c-18.4 0-33.3-9.6-33.3-21.5s14.9-21.5 33.3-21.5h266.4c18.4 0 33.3 9.6 33.3 21.5s-14.9 21.5-33.3 21.5M779.6 467.3H513.2c-18.4 0-33.3-9.6-33.3-21.5s14.9-21.5 33.3-21.5h266.4c18.4 0 33.3 9.6 33.3 21.5 0 11.8-14.9 21.5-33.3 21.5M696.3 618H513.2c-18.4 0-33.3-9.6-33.3-21.5s14.9-21.5 33.3-21.5h183.1c18.4 0 33.3 9.6 33.3 21.5S714.7 618 696.3 618"/>
</svg>
