<svg xmlns="http://www.w3.org/2000/svg" xmlns:xlink="http://www.w3.org/1999/xlink" fill='white' stroke-width="5" viewBox="0 0 1280 800">
  <defs>
    <path id="a" d="M321.4 104.3h634.4v640H321.4z"/>
  </defs>
  <clipPath id="b">
    <use xlink:href="#a" overflow="visible"/>
  </clipPath>
  <path clip-path="url(#b)"
        d="M797.1 251.2c15.4 0 28-12.6 28-28v-91c0-15.4-12.6-28-28-28s-28 12.6-28 28v91c0 15.4 12.6 28 28 28"/>
  <path d="M517.3 151.8h237.8v56H517.3z"/>
  <g>
    <defs>
      <path id="c" d="M321.4 104.3h634.4v640H321.4z"/>
    </defs>
    <clipPath id="d">
      <use xlink:href="#c" overflow="visible"/>
    </clipPath>
    <path clip-path="url(#d)"
          d="M475.3 251.2c15.4 0 28-12.6 28-28v-91c0-15.4-12.6-28-28-28s-28 12.6-28 28v91c0 15.4 12.6 28 28 28M884.5 151.8H839v56h45.5c8.4 0 16.1 7 16.1 16.1v448.4c0 8.4-7 16.1-16.1 16.1H857.2c-15.4 0-28 12.6-28 28s12.6 28 28 28H888c2.1 0 4.2 0 6.3-.7 35-4.9 61.6-35 61.6-71.3V223.2c-.1-39.2-32.2-71.4-71.4-71.4"/>
    <path clip-path="url(#d)"
          d="M729.9 688.4H393.4c-8.4 0-16.1-7-16.1-16.1V223.2c0-8.4 7-16.1 16.1-16.1h39.9v-56h-39.9c-39.2 0-72 32.2-72 72.1v449.1c0 39.2 32.2 72 72 72h336.5c15.4 0 28-12.6 28-28s-12.6-27.9-28-27.9"/>
    <path clip-path="url(#d)"
          d="M743.7 545.6L653 576.4V456.7l90.7-30.3v119.2zm-110.8 30.7l-90.7-30.9V425.8l90.7 30.9v119.6zm126.7-172c-2.6-1.9-6-2.4-9.1-1.4l-107.5 36-107.6-36.6c-3.1-1-6.5-.6-9.1 1.3-2.6 1.9-4.2 5-4.2 8.2v140.9c0 4.3 2.7 8.2 6.8 9.5l110.8 37.7h.1c.3.1.7.2 1 .3.2 0 .4.1.5.1.5.1 1 .1 1.6.1s1.1 0 1.6-.1c.2 0 .3-.1.5-.1.4-.1.7-.1 1-.3h.1L757 562.3c4.1-1.4 6.8-5.2 6.8-9.5V412.5c0-3.3-1.5-6.3-4.2-8.2"/>
    <path clip-path="url(#d)"
          d="M643 356.6l68.1 21.1-68.1 21.1-68.1-21.1 68.1-21.1zm-114.2 27.5l111.6 34.6c.8.2 1.7.4 2.6.4.9 0 1.7-.1 2.6-.4l111.6-34.6c6.9-2.1 6.9-10.6 0-12.8l-111.6-34.6c-.8-.3-1.7-.4-2.6-.4-.9 0-1.8.1-2.6.4l-111.6 34.6c-6.9 2.1-6.9 10.6 0 12.8"/>
  </g>
</svg>
